<svg width="62" height="62" viewBox="0 0 62 62" fill="none" xmlns="http://www.w3.org/2000/svg">
<path d="M28.2778 46.0245C27.9971 46.0245 27.6908 45.948 27.4355 45.8203C25.4701 44.8248 23.7854 43.3444 22.5602 41.5066C21.5392 39.9751 21.5392 38.0096 22.5602 36.4781C23.7854 34.6403 25.4701 33.1598 27.4355 32.1899C28.3799 31.7049 29.5286 32.1133 30.0135 33.0577C30.4985 34.0022 30.1156 35.1508 29.1457 35.6358C27.7673 36.325 26.5932 37.3715 25.7508 38.6477C25.5977 38.8775 25.5977 39.1838 25.7508 39.439C26.5932 40.7153 27.7673 41.7618 29.1457 42.451C30.0901 42.936 30.473 44.0846 30.0135 45.029C29.6562 45.6416 28.967 46.0245 28.2778 46.0245Z" fill="#18BBC0"/>
<path d="M38.8218 46.0244C38.1071 46.0244 37.4434 45.6415 37.1116 44.9778C36.6266 44.0334 37.0095 42.8848 37.9794 42.3998C39.3578 41.7106 40.532 40.6641 41.3743 39.3878C41.5274 39.1581 41.5274 38.8518 41.3743 38.5965C40.532 37.3203 39.3578 36.2737 37.9794 35.5846C37.035 35.0996 36.6521 33.951 37.1116 33.0065C37.5966 32.0621 38.7452 31.6792 39.6896 32.1387C41.6551 33.1341 43.3397 34.6146 44.5649 36.4524C45.5859 37.9839 45.5859 39.9494 44.5649 41.4809C43.3397 43.3187 41.6551 44.7992 39.6896 45.7691C39.3833 45.9478 39.1025 46.0244 38.8218 46.0244Z" fill="#18BBC0"/>
<path d="M38.2877 58.7871H22.9726C9.1124 58.7871 3.19055 52.8653 3.19055 39.0051V23.69C3.19055 9.8298 9.1124 3.90796 22.9726 3.90796H38.2877C52.1479 3.90796 58.0697 9.8298 58.0697 23.69V39.0051C58.0697 52.8653 52.1479 58.7871 38.2877 58.7871ZM22.9726 7.73674C11.2055 7.73674 7.01933 11.9229 7.01933 23.69V39.0051C7.01933 50.7722 11.2055 54.9583 22.9726 54.9583H38.2877C50.0548 54.9583 54.2409 50.7722 54.2409 39.0051V23.69C54.2409 11.9229 50.0548 7.73674 38.2877 7.73674H22.9726Z" fill="#18BBC0"/>
<path d="M5.6935 23.0774C4.64697 23.0774 3.77911 22.2096 3.77911 21.1631C3.77911 20.1165 4.62145 19.2487 5.6935 19.2487L54.753 19.2231C55.7995 19.2231 56.6674 20.091 56.6674 21.1375C56.6674 22.1841 55.8251 23.0519 54.753 23.0519L5.6935 23.0774Z" fill="#18BBC0"/>
</svg>
