<svg width="45" height="45" viewBox="0 0 45 45" fill="none" xmlns="http://www.w3.org/2000/svg">
<path fill-rule="evenodd" clip-rule="evenodd" d="M29.4671 31.8257H15.9296C15.1534 31.8257 14.5234 31.1957 14.5234 30.4194C14.5234 29.6432 15.1534 29.0132 15.9296 29.0132H29.4671C30.2434 29.0132 30.8734 29.6432 30.8734 30.4194C30.8734 31.1957 30.2434 31.8257 29.4671 31.8257Z" fill="#18BBC0"/>
<path fill-rule="evenodd" clip-rule="evenodd" d="M29.4671 23.976H15.9296C15.1534 23.976 14.5234 23.346 14.5234 22.5697C14.5234 21.7935 15.1534 21.1635 15.9296 21.1635H29.4671C30.2434 21.1635 30.8734 21.7935 30.8734 22.5697C30.8734 23.346 30.2434 23.976 29.4671 23.976Z" fill="#18BBC0"/>
<path fill-rule="evenodd" clip-rule="evenodd" d="M21.0947 16.1445H15.9291C15.1528 16.1445 14.5228 15.5145 14.5228 14.7383C14.5228 13.962 15.1528 13.332 15.9291 13.332H21.0947C21.8709 13.332 22.5009 13.962 22.5009 14.7383C22.5009 15.5145 21.8709 16.1445 21.0947 16.1445Z" fill="#18BBC0"/>
<mask id="mask0_1_8152" style="mask-type:luminance" maskUnits="userSpaceOnUse" x="5" y="3" width="35" height="39">
<path fill-rule="evenodd" clip-rule="evenodd" d="M5.625 3.75037H39.6838V41.0812H5.625V3.75037Z" fill="white"/>
</mask>
<g mask="url(#mask0_1_8152)">
<path fill-rule="evenodd" clip-rule="evenodd" d="M29.8288 6.5625L15.4119 6.57C11.0469 6.59625 8.43694 9.29625 8.43694 13.7944V31.0369C8.43694 35.565 11.0713 38.2687 15.4794 38.2687L29.8963 38.2631C34.2613 38.2369 36.8713 35.5331 36.8713 31.0369V13.7944C36.8713 9.26625 34.2388 6.5625 29.8288 6.5625ZM15.4813 41.0813C9.58631 41.0813 5.62444 37.0444 5.62444 31.0369V13.7944C5.62444 7.7325 9.46256 3.79313 15.4026 3.7575L29.8269 3.75H29.8288C35.7238 3.75 39.6838 7.78688 39.6838 13.7944V31.0369C39.6838 37.0969 35.8457 41.0381 29.9057 41.0756L15.4813 41.0813Z" fill="#18BBC0"/>
</g>
</svg>
