<svg width="45" height="45" viewBox="0 0 45 45" fill="none" xmlns="http://www.w3.org/2000/svg">
<mask id="mask0_1_8083" style="mask-type:luminance" maskUnits="userSpaceOnUse" x="7" y="3" width="33" height="39">
<path fillRule="evenodd" clipRule="evenodd" d="M7.50035 3.75073H39.3131V41.9175H7.50035V3.75073Z" fill="white"/>
</mask>
<g mask="url(#mask0_1_8083)">
<path fillRule="evenodd" clipRule="evenodd" d="M23.4068 6.5625C21.8168 6.5625 11.7855 10.095 10.6286 11.0606C10.2874 11.4037 10.2743 12 10.3474 15.9919C10.3811 17.9156 10.428 20.5294 10.428 24.1481C10.428 33.9 21.1568 38.2294 23.4049 39.0262C25.6511 38.2256 36.3855 33.8719 36.3855 24.1481C36.3855 20.5256 36.4324 17.91 36.468 15.9862C36.5392 11.9981 36.5261 11.4019 36.1643 11.0419C35.0299 10.095 24.9968 6.5625 23.4068 6.5625M23.4068 41.9175C23.2699 41.9175 23.133 41.8987 22.9999 41.8575C22.3718 41.6681 7.6155 37.0519 7.6155 24.1481C7.6155 20.5537 7.56863 17.9531 7.53488 16.0444C7.44863 11.2762 7.42988 10.2825 8.66175 9.0525C10.1336 7.57687 21.2805 3.75 23.4068 3.75C25.5311 3.75 36.678 7.57687 38.1536 9.0525C39.3836 10.2825 39.3649 11.2762 39.2786 16.0387C39.2449 17.9475 39.198 20.5481 39.198 24.1481C39.198 37.0519 24.4418 41.6681 23.8136 41.8575C23.6805 41.8987 23.5436 41.9175 23.4068 41.9175" fill="#18BBC0"/>
</g>
<path fillRule="evenodd" clipRule="evenodd" d="M22.0821 27.224V27.224C21.7089 27.224 21.3508 27.0759 21.0864 26.8115L17.5389 23.2603C16.9914 22.7109 16.9914 21.8184 17.5408 21.2709C18.0883 20.7215 18.9808 20.7215 19.5302 21.2709L22.0821 23.8265L28.3971 17.5115C28.9464 16.9621 29.8352 16.9621 30.3846 17.5115C30.9339 18.0609 30.9339 18.9515 30.3846 19.5009L23.0758 26.8115C22.8133 27.0759 22.4552 27.224 22.0821 27.224" fill="#AFAFAF"/>
</svg>
