<svg width="45" height="45" viewBox="0 0 45 45" fill="none" xmlns="http://www.w3.org/2000/svg">
<g clip-path="url(#clip0_1_8104)">
<path d="M14.2992 17.5437C14.1793 17.3082 13.9445 17.1537 13.6813 17.1365L7.37202 16.7158C7.04507 16.6835 6.74281 16.886 6.62355 17.1905L2.07517 28.8146C1.95291 29.1266 2.05267 29.4813 2.31967 29.6845C2.45318 29.7865 2.61367 29.8375 2.77336 29.8375C2.93156 29.8375 3.08985 29.7881 3.22336 29.6876L6.99857 26.8566L9.19669 27.296C9.5552 27.3673 9.91361 27.1708 10.0441 26.8281C11.2246 23.7361 12.6457 20.8608 14.2663 18.2833C14.4065 18.0596 14.4193 17.7784 14.2992 17.5437ZM8.87264 25.7015L6.96333 25.3198C6.75485 25.2786 6.53733 25.3281 6.36638 25.4555L4.43228 26.9059L7.81973 18.2486L12.3479 18.55C11.043 20.7587 9.87758 23.1569 8.87264 25.7015Z" fill="#18BBC0"/>
<path d="M28.2844 37.6309L27.8637 31.3208C27.8456 31.0568 27.6911 30.8222 27.4557 30.7021C27.2209 30.5821 26.9397 30.5941 26.7163 30.7351C24.1379 32.3557 21.2634 33.7768 18.1714 34.9572C17.8295 35.0869 17.6314 35.4454 17.7035 35.8046L18.143 38.0027L15.3119 41.7772C15.1109 42.0457 15.1117 42.4146 15.3149 42.6817C15.4597 42.8721 15.6824 42.9778 15.9119 42.9778C16.0034 42.9778 16.0956 42.9606 16.1856 42.9276L27.8097 38.3792C28.1141 38.2601 28.3061 37.957 28.2844 37.6309ZM18.0934 40.5684L19.5437 38.6343C19.6713 38.4641 19.7208 38.2466 19.6787 38.0374L19.297 36.1288C21.8423 35.1238 24.2399 33.9584 26.4485 32.6535L26.7507 37.1809L18.0934 40.5684Z" fill="#18BBC0"/>
<path d="M21.747 22.5007H16.6939C16.4217 22.5007 16.1712 22.6485 16.0384 22.8862L9.6961 34.2824C9.53113 34.5793 9.58659 34.9513 9.8311 35.1868C9.97436 35.3248 10.1625 35.3968 10.3516 35.3968C10.4851 35.3968 10.6193 35.3616 10.7393 35.2881L22.1354 28.3916C22.3596 28.2559 22.4969 28.0129 22.4969 27.7505V23.2507C22.497 22.8367 22.161 22.5007 21.747 22.5007ZM20.9971 27.3282L12.381 32.5425L17.1342 24.0014V24.0006H20.9971V27.3282Z" fill="#18BBC0"/>
<path d="M44.2859 -0.062136L44.2865 -0.0620906C44.7004 -0.0272337 45.0284 0.300842 45.0632 0.714616M44.2859 -0.062136L45.0632 0.714616M44.2859 -0.062136C44.1528 -0.0725674 37.8993 -0.50874 30.3382 2.56559C22.7734 5.64141 13.9053 12.2293 8.5497 26.2566M44.2859 -0.062136L18.7438 36.4515M45.0632 0.714616C45.0746 0.849149 45.5105 7.10208 42.4363 14.6624C39.3603 22.2272 32.7719 31.0955 18.7438 36.4515M45.0632 0.714616L18.7438 36.4515M18.7438 36.4515C18.6448 36.4898 18.542 36.5076 18.4405 36.5076C18.2187 36.5076 18.0018 36.4209 17.8395 36.2585L14.2736 32.6926C14.0909 32.5099 14.0007 32.2541 14.0296 31.9972C14.0585 31.7406 14.2022 31.5112 14.4204 31.3727L14.4206 31.3726L20.9 27.2819V24.1005H17.1983L13.6541 30.5357L13.654 30.5359C13.5249 30.7695 13.2938 30.9292 13.0296 30.9675L13.0286 30.9676C12.7638 31.0031 12.4985 30.9168 12.3086 30.7269L8.74265 27.161C8.50551 26.9239 8.42989 26.5703 8.5497 26.2566M8.5497 26.2566L8.64311 26.2923L8.54969 26.2567C8.5497 26.2567 8.5497 26.2566 8.5497 26.2566ZM18.6499 34.6655L16.2274 32.2429L22.2037 28.47L22.2039 28.4699C22.4501 28.3136 22.5997 28.0426 22.5997 27.7509V23.2513C22.5997 22.7821 22.219 22.4013 21.7498 22.4013H16.6951C16.3848 22.4013 16.1001 22.5705 15.9506 22.8415L15.9506 22.8415L12.7098 28.726L10.3356 26.3511C19.6311 2.72167 39.3014 1.57399 43.3949 1.61008C43.4148 3.43353 43.2196 8.34192 40.9366 13.9911C38.3178 20.4705 32.3281 29.2833 18.6499 34.6655Z" fill="#18BBC0" stroke="#18BBC0" stroke-width="0.2"/>
<path d="M12.2735 32.7255C12.2656 32.4755 12.1481 32.2333 11.9362 32.0731L11.9362 32.0731C10.7803 31.1992 9.28948 30.9096 7.84597 31.2752L7.8459 31.2752C6.31452 31.6643 5.06156 32.7091 4.40997 34.143C4.40997 34.143 4.40997 34.143 4.40997 34.143L-0.0235997 43.8975L-0.0236256 43.8976L0.067412 43.9389M12.2735 32.7255L0.148869 44.8503M12.2735 32.7255C12.5232 32.7329 12.766 32.8506 12.9262 33.063L12.2735 32.7255ZM0.067412 43.9389C-0.0623133 44.2239 -0.00158144 44.5592 0.219637 44.7796M0.067412 43.9389L4.50101 34.1844L0.067412 43.9389ZM0.219637 44.7796L0.148754 44.8501C0.148792 44.8502 0.14883 44.8502 0.148869 44.8503M0.219637 44.7796L0.149053 44.8504C0.148992 44.8504 0.14893 44.8503 0.148869 44.8503M0.219637 44.7796C0.362897 44.9236 0.554848 44.9993 0.749876 44.9993C0.854904 44.9993 0.960635 44.9768 1.06039 44.9318L10.8149 40.4974M0.148869 44.8503C0.311446 45.0136 0.529101 45.0993 0.749876 45.0993C0.869225 45.0993 0.988961 45.0738 1.10151 45.023L1.10177 45.0229L10.8563 40.5885L10.8149 40.4974M10.8149 40.4974L10.8563 40.5885L10.8149 40.4974ZM9.75182 35.2481C10.0221 35.5192 10.4396 35.5753 10.7711 35.3874L11.9388 34.727C12.1985 35.3436 12.2509 36.0454 12.0761 36.7351C11.815 37.764 11.1139 38.6042 10.1533 39.0416L10.1532 39.0416L2.46163 42.5377L5.95777 34.8453L5.86673 34.8039L5.95777 34.8453C6.39432 33.8847 7.2352 33.1836 8.26413 32.9226C8.53445 32.8541 8.80587 32.8206 9.07347 32.8206C9.48964 32.8206 9.89672 32.9022 10.2724 33.0612L9.61264 34.229C9.42482 34.5613 9.48167 34.9785 9.75182 35.2481ZM9.75182 35.2481L9.82265 35.1775M9.75182 35.2481C9.75189 35.2481 9.75196 35.2482 9.75204 35.2483L9.82265 35.1775M9.82265 35.1775C10.0611 35.4167 10.4293 35.4662 10.7218 35.3004L11.8982 34.6351L9.82265 35.1775Z" fill="#18BBC0" stroke="#18BBC0" stroke-width="0.2"/>
<path d="M44.9621 0.72388C44.9313 0.358698 44.6418 0.0691894 44.2766 0.038428C43.9841 0.0151372 37.0321 -0.511323 28.8563 3.25493C28.6336 3.35688 28.4753 3.56237 28.4318 3.80389C28.3883 4.04541 28.4663 4.29282 28.6395 4.46605L40.5337 16.3602C40.6754 16.5019 40.8667 16.5799 41.0639 16.5799C41.1081 16.5799 41.1524 16.5761 41.1966 16.5687C41.4381 16.5251 41.6428 16.3669 41.7456 16.1441C45.5126 7.96828 44.9861 1.01559 44.9621 0.72388ZM40.8209 14.525L30.4747 4.17883C36.46 1.65226 41.7013 1.47824 43.4929 1.5083C43.5229 3.30142 43.3541 8.5263 40.8209 14.525Z" fill="#18BBC0"/>
<path d="M33.122 11.8786C30.5999 9.35654 26.497 9.35654 23.975 11.8786C21.4529 14.4007 21.4529 18.5036 23.975 21.0256C25.2356 22.287 26.8923 22.917 28.5481 22.917C30.2048 22.917 31.8606 22.2863 33.122 21.0256C35.6441 18.5036 35.6441 14.4006 33.122 11.8786ZM32.0616 19.9652C30.1245 21.9023 26.9725 21.9023 25.0354 19.9652C23.0983 18.0281 23.0983 14.8761 25.0354 12.939C26.0036 11.9708 27.2763 11.4864 28.5482 11.4864C29.8202 11.4864 31.0928 11.9708 32.0617 12.939C33.9987 14.8761 33.9987 18.0281 32.0616 19.9652Z" fill="#18BBC0"/>
<path d="M30.036 17.9438C29.214 18.7672 27.8762 18.7664 27.0535 17.9438C26.2315 17.1211 26.2315 15.784 27.0535 14.9612C27.8754 14.1393 29.2133 14.1386 30.036 14.9612C30.3285 15.2544 30.804 15.2544 31.0964 14.9612C31.3896 14.668 31.3896 14.194 31.0964 13.9008C29.6902 12.494 27.3999 12.494 25.9931 13.9008C24.5861 15.3077 24.5861 17.5973 25.9931 19.0042C26.6965 19.7076 27.6212 20.0594 28.5451 20.0594C29.4698 20.0594 30.3937 19.7076 31.0964 19.0042C31.3896 18.711 31.3896 18.237 31.0964 17.9438C30.8039 17.6506 30.3285 17.6506 30.036 17.9438Z" fill="#18BBC0"/>
</g>
<defs>
<clipPath id="clip0_1_8104">
<rect width="45" height="45" fill="white"/>
</clipPath>
</defs>
</svg>
