<svg width="62" height="62" viewBox="0 0 62 62" fill="none" xmlns="http://www.w3.org/2000/svg">
<path d="M45.282 58.7873H15.9791C9.62331 58.7873 4.46722 53.6312 4.46722 47.2754V30.0969C4.46722 23.7412 9.62331 18.5851 15.9791 18.5851H45.282C51.6378 18.5851 56.7939 23.7412 56.7939 30.0969V33.7726C56.7939 34.8191 55.926 35.687 54.8795 35.687H49.7234C48.83 35.687 48.0132 36.0188 47.4261 36.6314L47.4006 36.6569C46.6859 37.3461 46.3541 38.2905 46.4306 39.2605C46.5838 40.9452 48.1919 42.298 50.0297 42.298H54.8795C55.926 42.298 56.7939 43.1658 56.7939 44.2124V47.2499C56.7939 53.6312 51.6378 58.7873 45.282 58.7873ZM15.9791 22.4139C11.7419 22.4139 8.296 25.8598 8.296 30.0969V47.2754C8.296 51.5126 11.7419 54.9585 15.9791 54.9585H45.282C49.5192 54.9585 52.9651 51.5126 52.9651 47.2754V46.1523H50.0297C46.1754 46.1523 42.9082 43.2935 42.6019 39.6178C42.3977 37.5248 43.1634 35.4572 44.6949 33.9513C46.0222 32.5984 47.809 31.8582 49.7234 31.8582H52.9651V30.0969C52.9651 25.8598 49.5192 22.4139 45.282 22.4139H15.9791Z" fill="#18BBC0"/>
<path d="M6.38161 34.3084C5.33508 34.3084 4.46722 33.4406 4.46722 32.394V20.7292C4.46722 16.9259 6.86659 13.4799 10.4146 12.1271L30.6816 4.46951C32.7747 3.67823 35.0975 3.95911 36.9097 5.23537C38.7476 6.51163 39.8196 8.57917 39.8196 10.7999V20.4994C39.8196 21.5459 38.9518 22.4138 37.9052 22.4138C36.8587 22.4138 35.9908 21.5459 35.9908 20.4994V10.7999C35.9908 9.82991 35.5314 8.93647 34.7146 8.37492C33.8978 7.81336 32.9278 7.68574 32.0089 8.04309L11.7419 15.7006C9.67436 16.4919 8.27048 18.5085 8.27048 20.7292V32.394C8.296 33.4661 7.42815 34.3084 6.38161 34.3084Z" fill="#18BBC0"/>
<path d="M50.031 46.1527C46.1767 46.1527 42.9095 43.2939 42.6032 39.6183C42.399 37.4997 43.1647 35.4322 44.6962 33.9262C45.998 32.5989 47.7848 31.8586 49.6992 31.8586H55.0084C57.5354 31.9352 59.4753 33.9262 59.4753 36.3766V41.6348C59.4753 44.0852 57.5354 46.0762 55.085 46.1527H50.031ZM54.9574 35.6874H49.7247C48.8313 35.6874 48.0145 36.0192 47.4274 36.6319C46.6872 37.3466 46.3298 38.3165 46.4319 39.2865C46.5851 40.9711 48.1932 42.324 50.031 42.324H55.0339C55.3658 42.324 55.6721 42.0177 55.6721 41.6348V36.3766C55.6721 35.9937 55.3658 35.7129 54.9574 35.6874Z" fill="#18BBC0"/>
<path d="M35.7356 33.262H17.8679C16.8214 33.262 15.9536 32.3941 15.9536 31.3476C15.9536 30.3011 16.8214 29.4332 17.8679 29.4332H35.7356C36.7821 29.4332 37.65 30.3011 37.65 31.3476C37.65 32.3941 36.7821 33.262 35.7356 33.262Z" fill="#18BBC0"/>
</svg>
