<svg width="45" height="45" viewBox="0 0 45 45" fill="none" xmlns="http://www.w3.org/2000/svg">
<path fill-rule="evenodd" clip-rule="evenodd" d="M13.3521 32.9296C12.5758 32.9296 11.9458 32.2996 11.9458 31.5234V18.6609C11.9458 17.8846 12.5758 17.2546 13.3521 17.2546C14.1283 17.2546 14.7583 17.8846 14.7583 18.6609V31.5234C14.7583 32.2996 14.1283 32.9296 13.3521 32.9296Z" fill="#18BBC0"/>
<path fill-rule="evenodd" clip-rule="evenodd" d="M22.1027 32.9278C21.3264 32.9278 20.6964 32.2978 20.6964 31.5215V12.5034C20.6964 11.7272 21.3264 11.0972 22.1027 11.0972C22.8789 11.0972 23.5089 11.7272 23.5089 12.5034V31.5215C23.5089 32.2978 22.8789 32.9278 22.1027 32.9278Z" fill="#18BBC0"/>
<path fill-rule="evenodd" clip-rule="evenodd" d="M30.7095 32.9278C29.9333 32.9278 29.3033 32.2978 29.3033 31.5215V25.4578C29.3033 24.6815 29.9333 24.0515 30.7095 24.0515C31.4858 24.0515 32.1158 24.6815 32.1158 25.4578V31.5215C32.1158 32.2978 31.4858 32.9278 30.7095 32.9278Z" fill="#18BBC0"/>
<path fill-rule="evenodd" clip-rule="evenodd" d="M13.245 4.6875C8.0475 4.6875 4.6875 8.24438 4.6875 13.7531V30.3094C4.6875 35.8181 8.0475 39.375 13.245 39.375H30.8175C36.0169 39.375 39.375 35.8181 39.375 30.3094V13.7531C39.375 8.24438 36.0169 4.6875 30.8175 4.6875H13.245ZM30.8175 42.1875H13.245C6.44437 42.1875 1.875 37.4137 1.875 30.3094V13.7531C1.875 6.64875 6.44437 1.875 13.245 1.875H30.8175C37.6181 1.875 42.1875 6.64875 42.1875 13.7531V30.3094C42.1875 37.4137 37.6181 42.1875 30.8175 42.1875Z" fill="#18BBC0"/>
</svg>
