<svg width="1920" height="1710" viewBox="0 0 1920 1710" fill="none" xmlns="http://www.w3.org/2000/svg">
<g opacity="0.3">
<path d="M-1164.47 1189.34L263.633 511.629L1303.23 484.842L1619.39 10.7147H2206.17M788.789 1709L1844.46 905.395L1871.25 353.586L2345.5 300.013V0M2212.81 10.2046L1653.97 24.4909L1330.28 478.592L338.911 530.379L-1071.46 1214.08M2219.44 9.6942L1688.55 38.2668L1357.32 472.341L414.188 549.13L-978.444 1238.83M2226.08 9.1841L1723.12 52.043L1384.37 466.091L489.466 567.881L-885.432 1263.57M2232.71 8.67368L1757.7 65.8189L1411.42 459.84L564.743 586.631L-792.419 1288.32M2239.35 8.16358L1792.27 79.5951L1438.47 453.59L640.02 605.382L-699.407 1313.06M2245.98 7.65347L1826.85 93.3713L1465.52 447.34L715.298 624.133L-606.395 1337.81M2252.62 7.14305L1861.43 107.147L1492.57 441.09L790.575 642.884L-513.383 1362.56M2259.25 6.63295L1896 120.923L1519.62 434.84L865.852 661.635L-420.37 1387.3M2265.88 6.12284L1930.58 134.7L1546.67 428.589L941.13 680.386L-327.358 1412.05M2272.52 5.61242L1965.16 148.476L1573.72 422.339L1016.41 699.136L-234.346 1436.79M2279.15 5.10232L1999.73 162.252L1600.76 416.089L1091.68 717.887L-141.334 1461.54M2285.79 4.59189L2034.31 176.028L1627.81 409.838L1166.96 736.638L-48.3214 1486.29M2292.42 4.08179L2068.89 189.804L1654.86 403.588L1242.24 755.389L44.6908 1511.03M2299.06 3.57169L2103.46 203.58L1681.91 397.338L1317.52 774.14L137.703 1535.78M2305.69 3.06126L2138.04 217.356L1708.96 391.088L1392.79 792.89L230.715 1560.52M2312.33 2.55116L2172.62 231.132L1736.01 384.838L1468.07 811.641L323.728 1585.27M2318.96 2.04106L2207.19 244.908L1763.06 378.587L1543.35 830.392L416.74 1610.02M2325.6 1.53063L2241.77 258.684L1790.11 372.337L1618.63 849.143L509.752 1634.76M2332.23 1.02053L2276.35 272.46L1817.15 366.087L1693.9 867.893L602.764 1659.51M2338.87 0.510101L2310.92 286.236L1844.2 359.836L1769.18 886.644L695.777 1684.25" stroke="#46595B" stroke-width="0.892894"/>
<path d="M-1164.47 1189.34L263.633 511.629L1303.23 484.842L1619.39 10.7147H2206.17M788.789 1709L1844.46 905.395L1871.25 353.586L2345.5 300.013V0M2212.81 10.2046L1653.97 24.4909L1330.28 478.592L338.911 530.379L-1071.46 1214.08M2219.44 9.6942L1688.55 38.2668L1357.32 472.341L414.188 549.13L-978.444 1238.83M2226.08 9.1841L1723.12 52.043L1384.37 466.091L489.466 567.881L-885.432 1263.57M2232.71 8.67368L1757.7 65.8189L1411.42 459.84L564.743 586.631L-792.419 1288.32M2239.35 8.16358L1792.27 79.5951L1438.47 453.59L640.02 605.382L-699.407 1313.06M2245.98 7.65347L1826.85 93.3713L1465.52 447.34L715.298 624.133L-606.395 1337.81M2252.62 7.14305L1861.43 107.147L1492.57 441.09L790.575 642.884L-513.383 1362.56M2259.25 6.63295L1896 120.923L1519.62 434.84L865.852 661.635L-420.37 1387.3M2265.88 6.12284L1930.58 134.7L1546.67 428.589L941.13 680.386L-327.358 1412.05M2272.52 5.61242L1965.16 148.476L1573.72 422.339L1016.41 699.136L-234.346 1436.79M2279.15 5.10232L1999.73 162.252L1600.76 416.089L1091.68 717.887L-141.334 1461.54M2285.79 4.59189L2034.31 176.028L1627.81 409.838L1166.96 736.638L-48.3214 1486.29M2292.42 4.08179L2068.89 189.804L1654.86 403.588L1242.24 755.389L44.6908 1511.03M2299.06 3.57169L2103.46 203.58L1681.91 397.338L1317.52 774.14L137.703 1535.78M2305.69 3.06126L2138.04 217.356L1708.96 391.088L1392.79 792.89L230.715 1560.52M2312.33 2.55116L2172.62 231.132L1736.01 384.838L1468.07 811.641L323.728 1585.27M2318.96 2.04106L2207.19 244.908L1763.06 378.587L1543.35 830.392L416.74 1610.02M2325.6 1.53063L2241.77 258.684L1790.11 372.337L1618.63 849.143L509.752 1634.76M2332.23 1.02053L2276.35 272.46L1817.15 366.087L1693.9 867.893L602.764 1659.51M2338.87 0.510101L2310.92 286.236L1844.2 359.836L1769.18 886.644L695.777 1684.25" stroke="url(#paint0_linear_1_8051)" stroke-width="0.892894"/>
</g>
<defs>
<linearGradient id="paint0_linear_1_8051" x1="443.694" y1="965.757" x2="778.606" y2="516.122" gradientUnits="userSpaceOnUse">
<stop stop-color="#16161C"/>
<stop offset="1" stop-color="white" stop-opacity="0"/>
</linearGradient>
</defs>
</svg>
